<?xml version="1.0" standalone="no"?>
<!DOCTYPE svg PUBLIC "-//W3C//DTD SVG 20010904//EN"
 "http://www.w3.org/TR/2001/REC-SVG-20010904/DTD/svg10.dtd">
<svg version="1.0" xmlns="http://www.w3.org/2000/svg"
 width="794.000000pt" height="794.000000pt" viewBox="0 0 794.000000 794.000000"
 preserveAspectRatio="xMidYMid meet">
<metadata>
Created by potrace 1.14, written by Peter Selinger 2001-2017
</metadata>
<g transform="translate(0.000000,794.000000) scale(0.100000,-0.100000)"
fill="#000000" stroke="none">
<path d="M2755 7400 c-96 -9 -196 -34 -287 -71 -69 -28 -206 -114 -244 -153
-12 -11 -32 -30 -45 -42 -13 -11 -35 -35 -49 -54 -14 -19 -33 -41 -42 -49 -10
-9 -18 -19 -18 -24 0 -4 -15 -31 -33 -60 -29 -45 -47 -80 -51 -97 -1 -3 -7
-15 -14 -27 -7 -13 -10 -23 -6 -23 3 0 2 -6 -4 -12 -11 -14 -40 -119 -49 -177
-19 -135 5 -353 53 -466 9 -22 16 -42 16 -45 0 -18 76 -145 124 -206 62 -79
198 -204 223 -204 6 0 11 -4 11 -10 0 -5 6 -10 13 -10 6 -1 23 -10 36 -21 l24
-19 -24 -21 c-12 -11 -59 -52 -102 -92 -44 -40 -94 -85 -111 -100 -61 -55
-146 -141 -146 -147 0 -4 -12 -20 -27 -37 -16 -16 -35 -39 -43 -49 -40 -52
-135 -170 -139 -174 -4 -3 -13 -18 -21 -35 -8 -16 -17 -32 -20 -35 -3 -3 -12
-18 -20 -35 -8 -16 -17 -32 -20 -35 -16 -14 -132 -233 -144 -271 -5 -13 -9
-26 -10 -29 -16 -35 -28 -67 -30 -75 -1 -5 -10 -28 -20 -50 -10 -22 -19 -44
-20 -50 -1 -5 -4 -14 -7 -20 -6 -10 -31 -82 -35 -100 -1 -5 -5 -23 -9 -40 -3
-16 -8 -41 -11 -55 -2 -14 -7 -32 -10 -40 -3 -8 -14 -59 -25 -114 -10 -54 -21
-101 -23 -105 -16 -27 -26 -488 -12 -621 4 -41 9 -93 11 -115 5 -61 12 -95 65
-305 38 -149 66 -234 119 -360 78 -182 121 -270 133 -270 4 0 8 -4 8 -9 0 -10
156 -258 174 -277 6 -6 34 -37 61 -69 28 -32 61 -70 75 -85 14 -15 52 -58 85
-96 33 -37 68 -75 78 -83 10 -9 29 -25 42 -36 13 -11 36 -30 51 -42 16 -12 39
-30 51 -40 12 -11 34 -28 48 -39 15 -10 41 -32 58 -47 18 -15 52 -40 77 -54
25 -15 48 -32 52 -38 5 -6 8 -6 8 0 0 7 3 7 8 0 7 -10 41 -30 132 -77 25 -13
47 -26 50 -30 3 -4 26 -17 50 -28 25 -12 62 -30 83 -41 42 -22 365 -136 407
-144 8 -2 33 -8 55 -13 22 -6 58 -13 80 -17 57 -8 132 -21 250 -42 22 -4 153
-6 290 -6 233 1 262 3 430 33 259 45 554 147 785 272 171 92 202 109 210 118
7 8 143 112 215 164 56 41 355 338 355 354 0 6 3 12 8 12 4 0 23 23 42 52 19
29 42 59 50 68 8 9 22 27 30 40 8 12 21 28 28 36 6 7 12 17 12 23 0 6 4 11 9
11 4 0 23 29 41 65 19 37 37 68 42 71 5 3 6 10 3 15 -4 5 -3 9 2 9 4 0 19 25
33 55 14 30 29 55 33 55 5 0 5 5 2 10 -3 6 -2 10 3 10 7 0 40 70 48 100 0 3 4
12 7 20 14 34 59 156 61 165 1 6 4 15 7 20 11 17 38 108 44 145 3 19 12 60 20
90 8 30 17 71 20 90 4 19 8 40 9 45 31 126 46 411 32 625 -10 157 -12 174 -40
310 -14 69 -28 140 -31 159 -3 18 -37 122 -76 230 -53 146 -95 241 -167 376
-52 99 -98 182 -102 185 -3 3 -41 52 -84 110 -102 136 -159 204 -217 260 -198
191 -254 240 -362 312 -67 45 -138 94 -158 109 -20 16 -38 26 -41 23 -3 -2
-11 2 -18 11 -7 8 -19 15 -26 15 -8 0 -14 5 -14 11 0 5 -4 7 -10 4 -5 -3 -10
-1 -10 4 0 6 -6 11 -14 11 -7 0 -39 14 -70 30 -31 17 -57 29 -58 29 -2 -1 -31
12 -65 29 -34 16 -64 28 -67 24 -3 -3 -6 0 -6 6 0 7 -3 11 -7 10 -5 -1 -19 3
-33 9 -30 12 -91 32 -120 38 -11 3 -29 7 -41 10 -11 2 -29 7 -39 10 -10 3 -27
8 -37 10 -10 3 -60 16 -112 30 -140 38 -124 35 -291 50 -36 3 -94 8 -130 12
-96 10 -343 2 -393 -13 -16 -5 -18 -1 -14 24 3 16 9 38 15 48 5 11 12 35 15
54 3 19 8 46 12 60 3 14 7 72 9 130 3 106 -20 266 -45 320 -7 14 -13 31 -15
38 -6 31 -78 164 -115 214 -59 78 -173 197 -191 198 -4 0 -13 6 -20 13 -35 34
-161 103 -180 99 -5 -1 -8 3 -8 9 0 5 -4 7 -10 4 -5 -3 -10 -2 -10 3 0 6 -17
13 -37 18 -44 9 -52 11 -55 14 -3 2 -18 6 -53 13 -11 3 -47 8 -80 11 -33 4
-71 8 -85 10 -14 2 -61 0 -105 -4z"/>
</g>
</svg>
